<svg xmlns="http://www.w3.org/2000/svg" viewBox="0 0 359.77 76"><defs><style>.cls-1{fill:#ff6c2c;}</style></defs><g id="Layer_2" data-name="Layer 2"><g id="Layer_1-2" data-name="Layer 1"><path class="cls-1" d="M28.4,18.71H49.87L46.55,31.44a8.07,8.07,0,0,1-2.85,4.28,7.71,7.71,0,0,1-4.85,1.62h-10a9.7,9.7,0,0,0-6,2,10.39,10.39,0,0,0-3.65,5.41A10.15,10.15,0,0,0,19,49.59a10.47,10.47,0,0,0,1.86,4,9.52,9.52,0,0,0,3.42,2.8,10,10,0,0,0,4.56,1H35a3.43,3.43,0,0,1,2.8,1.37,3.31,3.31,0,0,1,.62,3.09L34.58,76H27.93a26.91,26.91,0,0,1-12.59-3,28.51,28.51,0,0,1-9.55-7.93A28.13,28.13,0,0,1,.61,53.82a27.83,27.83,0,0,1,.34-13l.38-1.43a28,28,0,0,1,10-15,28.46,28.46,0,0,1,7.93-4.22A27.37,27.37,0,0,1,28.4,18.71Z"/><path class="cls-1" d="M39.23,76,58,5.89A8,8,0,0,1,60.8,1.61,7.71,7.71,0,0,1,65.64,0H85.5A26.87,26.87,0,0,1,98.08,3a28.31,28.31,0,0,1,14.78,19.19,26.58,26.58,0,0,1-.38,13l-.38,1.43a28.65,28.65,0,0,1-3.8,8.4,27.75,27.75,0,0,1-23.18,12.4H67.92l3.42-12.82a8,8,0,0,1,2.85-4.18A7.69,7.69,0,0,1,79,38.76h5.51a10,10,0,0,0,9.69-7.5,9.35,9.35,0,0,0,.14-4.66,10.67,10.67,0,0,0-1.85-4,10.16,10.16,0,0,0-3.42-2.85,9.83,9.83,0,0,0-4.56-1.09H73.91L60,70.21a8.13,8.13,0,0,1-2.85,4.18A7.62,7.62,0,0,1,52.44,76Z"/><path class="cls-1" d="M157.7,38.57l.28-1a1.36,1.36,0,0,0-.24-1.28,1.46,1.46,0,0,0-1.18-.52H125.68a7.49,7.49,0,0,1-3.61-.86,7.93,7.93,0,0,1-2.66-2.23A7.74,7.74,0,0,1,118,29.45a8,8,0,0,1,.09-3.71l1.9-7.22h41.8a14.91,14.91,0,0,1,7.13,1.72,16.31,16.31,0,0,1,5.36,4.46A15.86,15.86,0,0,1,177.22,31a15.7,15.7,0,0,1-.14,7.36l-7.51,27.93A12.87,12.87,0,0,1,157,75.91l-30.87-.1a16.34,16.34,0,0,1-13.11-6.41,17.22,17.22,0,0,1-3-6.65,15.64,15.64,0,0,1,.19-7.65l.38-1.43a14.94,14.94,0,0,1,2.23-4.93,16.82,16.82,0,0,1,3.66-3.9,16.59,16.59,0,0,1,4.65-2.52,16.27,16.27,0,0,1,5.42-.9h25.93l-1.9,7.13a8.09,8.09,0,0,1-2.85,4.18A7.6,7.6,0,0,1,143,54.34H131.38A2,2,0,0,0,129.29,56a2,2,0,0,0,.38,1.85,2.09,2.09,0,0,0,1.71.8H150.1a3,3,0,0,0,1.8-.56,2.46,2.46,0,0,0,.95-1.53l.19-.76Z"/><path class="cls-1" d="M213,18.71a27,27,0,0,1,12.68,3,28.49,28.49,0,0,1,9.55,7.93,28,28,0,0,1,5.17,11.3A27.16,27.16,0,0,1,240,54l-4.75,17.86a5.2,5.2,0,0,1-2.05,3A5.75,5.75,0,0,1,229.7,76H219.45a3.37,3.37,0,0,1-2.85-1.38,3.33,3.33,0,0,1-.57-3.08L221.73,50a9.46,9.46,0,0,0,.14-4.66,10.56,10.56,0,0,0-1.85-4,10.16,10.16,0,0,0-3.42-2.85A9.71,9.71,0,0,0,212,37.34H201.4l-9.22,34.48a5.23,5.23,0,0,1-2,3A5.93,5.93,0,0,1,186.58,76H176.41a3.42,3.42,0,0,1-2.8-1.38,3.27,3.27,0,0,1-.62-3.08l14.06-52.83Z"/><path class="cls-1" d="M268.94,36.81a4.94,4.94,0,0,0-1.62,2.33l-4.27,16.15a2.85,2.85,0,0,0,2.75,3.61h39.33l-3,11.31a8,8,0,0,1-2.85,4.18A7.58,7.58,0,0,1,294.49,76H258.68a15.34,15.34,0,0,1-7.13-1.66,15.64,15.64,0,0,1-5.36-4.47,16.22,16.22,0,0,1-2.95-6.36,14.49,14.49,0,0,1,.24-7.27l5.79-21.57a21.74,21.74,0,0,1,7.65-11.49A22,22,0,0,1,263,19.9a20.94,20.94,0,0,1,7-1.19h25.37a15,15,0,0,1,7.12,1.72,16.13,16.13,0,0,1,5.37,4.46,15.41,15.41,0,0,1,2.9,6.37,15.88,15.88,0,0,1-.19,7.31L308.84,45a12.38,12.38,0,0,1-4.61,6.89,12.69,12.69,0,0,1-7.84,2.61H267.7l1.9-7a7.73,7.73,0,0,1,7.6-5.79h11.59a2,2,0,0,0,2.09-1.62l.38-1.43a2.18,2.18,0,0,0-2.09-2.75H271.5A4,4,0,0,0,268.94,36.81Z"/><path class="cls-1" d="M305,76,324.13,4.27a5.42,5.42,0,0,1,2.05-3.08A5.74,5.74,0,0,1,329.74,0H339.9a3.51,3.51,0,0,1,2.9,1.38,3.29,3.29,0,0,1,.62,3.08L329.17,57.38A23.6,23.6,0,0,1,325.8,65a24.94,24.94,0,0,1-5.51,5.84,25.68,25.68,0,0,1-7.08,3.8A24.3,24.3,0,0,1,305,76Z"/><path class="cls-1" d="M346.7,6.67a6.45,6.45,0,0,1,.87-3.26A6.4,6.4,0,0,1,350,1a6.37,6.37,0,0,1,3.27-.88,6.45,6.45,0,0,1,3.26.87,6.33,6.33,0,0,1,2.4,2.39,6.43,6.43,0,0,1,.88,3.28,6.53,6.53,0,0,1-.84,3.22,6.56,6.56,0,0,1-11.39,0A6.54,6.54,0,0,1,346.7,6.67Zm.91,0a5.47,5.47,0,0,0,.76,2.81,5.43,5.43,0,0,0,2.06,2.06,5.56,5.56,0,0,0,5.61,0,5.7,5.7,0,0,0,2.06-2,5.42,5.42,0,0,0,.76-2.82,5.44,5.44,0,0,0-.76-2.81,5.57,5.57,0,0,0-2-2,5.63,5.63,0,0,0-5.63,0,5.7,5.7,0,0,0-2.06,2.05A5.42,5.42,0,0,0,347.61,6.67Zm8.28-1.58a2.17,2.17,0,0,1-.37,1.23,2.25,2.25,0,0,1-1,.79l2.07,3.44h-1.46l-1.8-3.08h-1.18v3.08h-1.28V2.8h2.27a3.22,3.22,0,0,1,2.11.57A2.11,2.11,0,0,1,355.89,5.09ZM352.11,6.4h.94A1.66,1.66,0,0,0,354.17,6a1.16,1.16,0,0,0,.42-.92,1.09,1.09,0,0,0-.37-.93A2,2,0,0,0,353,3.91h-.92Z"/></g></g></svg>