<svg width="300" height="300" viewBox="0 0 300 300" fill="none" xmlns="http://www.w3.org/2000/svg">
<path d="M150 300C232.843 300 300 232.843 300 150C300 67.1573 232.843 0 150 0C67.1573 0 0 67.1573 0 150C0 232.843 67.1573 300 150 300Z" fill="#1977F3"/>
<path d="M208.389 193.369L215.033 150H173.436V121.86C173.436 110.006 179.237 98.425 197.884 98.425H216.805V61.5103C216.805 61.5103 199.635 58.5782 183.223 58.5782C148.967 58.5782 126.565 79.3348 126.565 116.946V150H88.4688V193.369H126.565V298.186C134.201 299.388 142.027 300 150 300C157.974 300 165.8 299.367 173.436 298.186V193.369H208.389Z" fill="white"/>
</svg>
