<svg width="1551" height="300" viewBox="0 0 1551 300" fill="none" xmlns="http://www.w3.org/2000/svg">
<g clip-path="url(#clip0_139:73)">
<path d="M121.285 46.9818C103.034 46.9818 97.7578 55.0735 97.7578 72.9206V102.527H146.438L141.559 150.359H97.7767V295.518H39.3565V150.359H0V102.527H39.3565V73.7335C39.3565 25.4858 58.8173 0.000749128 113.115 0.000749128C124.492 -0.0257191 135.862 0.649205 147.157 2.02366V47.0385L121.285 46.9818Z" fill="#1877F2"/>
<path d="M150.489 192.936C150.489 139.016 176.04 98.4067 229.581 98.4067C258.781 98.4067 276.615 113.418 285.145 132.059V102.528H341.106V295.519H285.145V266.328C277.032 284.989 258.781 299.584 229.581 299.584C176.04 299.584 150.489 259.031 150.489 205.055V192.936ZM208.89 205.924C208.89 234.699 219.425 253.756 246.602 253.756C270.545 253.756 282.705 236.325 282.705 208.76V189.382C282.705 161.817 270.545 144.386 246.602 144.386C219.425 144.386 208.89 163.443 208.89 192.218V205.924Z" fill="#1877F2"/>
<path d="M462.777 98.4613C485.472 98.4613 506.976 103.339 518.739 111.431L505.765 152.797C493.597 147.004 480.302 143.956 466.825 143.873C435.184 143.873 421.435 162.117 421.435 193.35V204.693C421.435 235.926 435.222 254.17 466.825 254.17C480.302 254.085 493.597 251.039 505.765 245.246L518.739 286.593C506.976 294.704 485.491 299.582 462.777 299.582C394.22 299.582 362.996 262.677 362.996 203.483V194.56C362.996 135.365 394.22 98.4613 462.777 98.4613Z" fill="#1877F2"/>
<path d="M526.445 206.397V189.382C526.445 134.649 557.67 98.6338 621.366 98.6338C681.394 98.6338 707.758 135.122 707.758 188.644V219.461H584.828C586.057 245.816 597.82 257.575 630.217 257.575C652.137 257.575 675.247 253.113 692.287 245.816L702.973 285.802C687.559 293.931 655.919 300 627.948 300C554.019 299.981 526.445 263.115 526.445 206.397ZM584.847 181.252H655.427V176.394C655.427 155.314 646.917 138.582 621.385 138.582C595.002 138.601 584.847 155.238 584.847 181.177V181.252Z" fill="#1877F2"/>
<path d="M924.239 205.109C924.239 259.029 898.292 299.638 844.808 299.638C815.607 299.638 795.333 285.043 787.22 266.383V295.574H732.071V5.61457L790.472 0.320923V129.259C798.983 112.244 817.649 98.4423 844.826 98.4423C898.367 98.4423 924.258 138.995 924.258 192.972L924.239 205.109ZM865.838 191.724C865.838 164.556 855.304 144.289 827.314 144.289C803.371 144.289 790.397 161.304 790.397 188.888V209.155C790.397 236.72 803.371 253.754 827.314 253.754C855.304 253.754 865.838 233.487 865.838 206.319V191.724Z" fill="#1877F2"/>
<path d="M943.778 203.88V194.163C943.778 138.598 975.419 98.4613 1039.91 98.4613C1104.4 98.4613 1136.06 138.598 1136.06 194.163V203.88C1136.06 259.426 1104.42 299.582 1039.93 299.582C975.438 299.582 943.778 259.426 943.778 203.88ZM1077.64 190.098C1077.64 164.556 1067.09 144.289 1039.82 144.289C1012.54 144.289 1002.09 164.556 1002.09 190.098V207.945C1002.09 233.487 1012.64 253.754 1039.82 253.754C1066.99 253.754 1077.64 233.487 1077.64 207.945V190.098Z" fill="#1877F2"/>
<path d="M1155.49 203.88V194.163C1155.49 138.598 1187.13 98.4613 1251.62 98.4613C1316.11 98.4613 1347.75 138.598 1347.75 194.163V203.88C1347.75 259.426 1316.11 299.582 1251.62 299.582C1187.13 299.582 1155.49 259.426 1155.49 203.88ZM1289.35 190.098C1289.35 164.556 1278.79 144.289 1251.62 144.289C1224.44 144.289 1213.91 164.556 1213.91 190.098V207.945C1213.91 233.487 1224.44 253.754 1251.62 253.754C1278.79 253.754 1289.35 233.487 1289.35 207.945V190.098Z" fill="#1877F2"/>
<path d="M1428.06 194.56L1485.65 102.526H1547.7L1487.27 197.811L1550.14 295.517H1488.09L1428.06 200.988V295.517H1369.64V5.61457L1428.06 0.320923V194.56Z" fill="#1877F2"/>
</g>
<defs>
<clipPath id="clip0_139:73">
<rect width="1550.14" height="300" fill="white"/>
</clipPath>
</defs>
</svg>
